<?xml version="1.0" encoding="UTF-8"?>
<svg id="Layer_1" xmlns="http://www.w3.org/2000/svg" width="210mm" height="210mm" version="1.1" viewBox="0 0 595.3 595.3">
  <defs>
    <style>
      .st0 { fill: #57a84c; }
      .st1 { fill: #0db14b; }
      .st2 { fill: #595a5c; }
    </style>
  </defs>
  <polygon class="st0" points="111.5 263.3 102 258 102 258 55.7 253.8 50.4 263.3 111.5 263.3 111.5 263.3"/>
  <polygon class="st0" points="55.7 253.8 59.9 207.5 50.4 202.2 50.4 202.2 50.4 263.3 50.4 263.3 55.7 253.8 55.7 253.8"/>
  <path class="st1" d="M62.1,225.8c1.3-1.3,2.6-2.5,4.1-3.9,4.7,3.3,9.4,6.6,14.3,10.1.5-.7,1.1-1.3,1.6-2,8.3-10.6,17.7-20.2,28.5-28.4,2.7-2,5.3-2.1,8.7-1.8-16,15.5-27.4,33.9-38.6,52.5-6.2-8.8-12.3-17.6-18.6-26.6Z"/>
  <path class="st0" d="M59.9,207.5l34.5,3.1c3.1-3,6.2-5.8,9.4-8.5h-53.5l9.5,5.3h0Z"/>
  <path class="st0" d="M105.3,221.6l-3.3,36.4,9.5,5.3v-49.5c-2.1,2.5-4.2,5.2-6.2,7.8Z"/>
  <g>
    <path class="st2" d="M149.7,247.6h-8.3v14.7h-10.9v-48.5h19.8c11.8,0,16.2,4.7,16.2,13.8v6.3c0,9.1-5,13.7-16.8,13.7ZM155.5,228.5c0-3.5-1.2-5.1-5.8-5.1h-8.3v14.6h8.3c4.8,0,5.8-1.8,5.8-5.3v-4.2Z"/>
    <path class="st2" d="M210.4,262.3h-11.4l-2.6-9.5h-16.3l-2.6,9.5h-11.4l14.8-48.5h14.6l14.9,48.5ZM182.6,243.7h11.1l-5.5-20.3-5.6,20.3Z"/>
    <path class="st2" d="M232.8,247.2h-6.4v15.1h-10.9v-48.5h20.2c11.8,0,16.2,4.7,16.2,13.8v6c0,6-2.2,10.1-7.1,12.2l11.7,16.6h-13l-10.7-15.1ZM240.9,228.5c0-3.6-1.4-5.1-5.8-5.1h-8.7v14.3h8.7c4.7,0,5.8-1.7,5.8-5.3v-3.9Z"/>
    <path class="st2" d="M281.3,223.4v38.8h-10.9v-38.8h-13v-9.7h37v9.7h-13Z"/>
    <path class="st2" d="M313.9,263c-5.6,0-11.5-1.2-15.7-3.1l1.8-8.5c4.4,1.4,9,2.3,14,2.3s6.7-1.1,6.7-5.2-.2-4.9-8.2-6.6c-11.7-2.6-13.5-4.9-13.5-15.4s3.4-13.6,16.8-13.6,9.3.4,14.7,1.6l-1.1,9.2c-5.5-.9-9.1-1.4-13.5-1.4s-6,.9-6,4.4.2,4.7,7.9,6.6c13.1,3.1,13.8,5.7,13.8,15.2s-3.1,14.4-17.8,14.4Z"/>
    <path class="st1" d="M348.2,246.4c0,4.2,1.4,6.7,6.8,6.7s8.3-.4,12.5-1.2l1.5,9.5c-4.8,1-9.2,1.5-14.1,1.5-12.2,0-17.7-6-17.7-14.9v-20.3c0-8.8,5.5-14.9,17.7-14.9s9.3.5,14.1,1.5l-1.5,9.5c-4.2-.7-9-1.2-12.5-1.2-5.4,0-6.8,2.5-6.8,6.7v16.8Z"/>
    <path class="st1" d="M401.4,262.3v-19.5h-15.7v19.5h-10.9v-48.5h10.9v19.3h15.7v-19.3h10.9v48.5h-10.9Z"/>
    <path class="st1" d="M419.9,262.3v-48.5h30.5v9.7h-19.6v8.9h18.1v9.7h-18.1v10.6h19.6v9.7h-30.5Z"/>
    <path class="st1" d="M467.1,246.4c0,4.2,1.4,6.7,6.8,6.7s8.3-.4,12.5-1.2l1.5,9.5c-4.8,1-9.2,1.5-14.1,1.5-12.2,0-17.7-6-17.7-14.9v-20.3c0-8.8,5.5-14.9,17.7-14.9s9.3.5,14.1,1.5l-1.5,9.5c-4.2-.7-9-1.2-12.5-1.2-5.4,0-6.8,2.5-6.8,6.7v16.8Z"/>
    <path class="st1" d="M493.8,213.8h10.9v48.5h-10.9v-48.5ZM506.1,237.5l13.1-23.8h12.3l-13.6,23.8,14.6,24.8h-12.3l-14.1-24.8Z"/>
  </g>
</svg>
